<?xml version="1.0" encoding="utf-8"?>
<!-- Svg Vector Icons : http://www.onlinewebfonts.com/icon -->
<!DOCTYPE svg PUBLIC "-//W3C//DTD SVG 1.1//EN" "http://www.w3.org/Graphics/SVG/1.1/DTD/svg11.dtd">
<svg version="1.1" xmlns="http://www.w3.org/2000/svg" xmlns:xlink="http://www.w3.org/1999/xlink" x="0px" y="0px" viewBox="0 0 1000 1000" enable-background="new 0 0 1000 1000" xml:space="preserve">
<metadata> Svg Vector Icons : http://www.onlinewebfonts.com/icon </metadata>
<g><g transform="translate(0.000000,512.000000) scale(0.100000,-0.100000)"><path d="M4803.8,5003.2c-304.4-55.5-553.3-195.3-836.6-467.1c-312.1-302.5-503.5-570.5-987.8-1380.3c-486.3-809.8-649-1035.7-855.7-1183.1c-67-47.9-367.6-212.5-666.2-367.6c-300.6-153.2-629.8-336.9-733.2-405.9C387.3,977.2,197.8,745.6,126.9,475.6c-38.3-151.2-36.4-279.5,9.6-461.4c51.7-204.8,139.7-369.5,266.1-507.3c134-141.7,283.3-229.7,486.3-287.2c137.8-40.2,199.1-44,482.4-44c268,0,381,9.6,637.5,53.6c172.3,30.6,315.9,49.8,321.6,45.9c3.8-5.7,17.2-107.2,28.7-227.8c72.7-809.8,421.2-1671.3,932.3-2308.8l95.7-120.6l-9.6-120.6c-9.6-103.4-3.8-134,40.2-220.2c168.5-331.2,963-892.1,1462.6-1029.9c113-30.6,124.4-30.6,239.3,0c497.7,137.8,1292.2,698.8,1460.7,1029.9c44,86.2,49.8,116.8,40.2,220.2l-9.6,120.6l95.7,120.6c329.3,409.7,631.8,997.4,779.2,1512.4c91.9,323.5,120.6,474.8,166.5,918.9c5.8,65.1,19.1,109.1,32.5,109.1c13.4,0,118.7-17.2,233.6-36.4c851.9-149.3,1338.2-78.5,1656,245C9764.1-320.8,9900,4.7,9900,263.1c0,237.4-112.9,486.3-310.1,683.4c-185.7,187.6-438.4,344.6-1039.5,654.7c-641.3,329.3-675.8,348.4-825.1,503.5c-155.1,160.8-317.8,402-704.5,1049.1c-176.1,292.9-363.7,599.2-417.3,679.6c-344.6,511.2-712.1,884.5-1039.5,1049.1C5357.1,4987.9,5014.4,5041.5,4803.8,5003.2z M5261.4,4562.9c158.9-55.5,298.6-145.5,459.5-294.8c283.3-262.3,499.7-568.6,1007-1418.6c482.4-807.9,672-1052.9,957.2-1240.5c86.2-57.4,390.5-225.9,677.7-373.3C9113.2,849,9335.3,692,9442.4,471.8c118.7-247-9.6-629.8-266.1-783c-137.8-82.3-294.8-112.9-568.6-109.1c-283.3,3.8-522.6,38.3-1100.8,160.8C5923.8,77.5,5493,136.8,4826.8,115.7c-553.3-19.2-999.3-86.2-2035-310.1c-957.2-208.7-1328.6-258.4-1611.9-222.1c-201,26.8-269.9,47.9-377.1,114.9c-241.2,153.2-361.8,536-247,773.4C661.1,688.1,887,850.9,1597.2,1216.5c677.7,348.4,763.9,402,941.9,580.1c204.8,204.9,348.4,413.5,731.3,1052.9c604.9,1012.7,880.6,1370.7,1231,1596.6C4736.8,4599.3,5031.7,4643.3,5261.4,4562.9z M5573.4-320.8c335-30.6,1399.4-224,1634.9-296.7c34.5-11.5,36.4-26.8,24.9-245c-13.4-243.2-59.4-503.5-128.3-740.9c-42.1-141.7-170.4-497.7-183.8-513c-5.8-5.8-97.7,78.5-206.8,187.6l-197.2,197.2l47.9,116.8c139.7,344.6,24.9,754.3-275.7,968.7c-155.1,111-269.9,145.5-486.3,145.5c-153.2,0-201-7.6-300.6-49.8l-116.8-49.8l-145.5,145.5c-80.4,80.4-145.5,153.2-145.5,160.8C5094.8-280.5,5146.5-282.5,5573.4-320.8z M5045.1-1038.7c-135.9-403.9,44-827,426.9-1008.9c120.6-57.4,145.5-61.3,331.2-61.3c168.5,0,218.3,7.6,312.1,45.9l112.9,45.9l247-247l245.1-245l-53.6-93.8c-76.6-132.1-248.9-377.1-266.1-377.1c-7.7,0-53.6,55.5-103.4,122.5c-51.7,67-178,214.4-285.2,325.4L5818.5-2329h-819.4h-817.5l-189.5-197.2c-105.3-107.2-231.6-254.6-285.2-323.5c-51.7-70.8-103.4-126.3-114.9-122.5c-40.2,11.5-285.2,398.2-417.3,662.4c-250.8,497.7-400.1,1043.4-403.9,1472.2l-1.9,220.2l67,15.3c381,86.2,1160.1,231.6,1387.9,260.4l287.2,36.4l292.9-289.1l292.9-291L5045.1-1038.7z M5992.7-941c139.7-70.8,220.2-204.9,222.1-363.7c0-218.2-158.9-390.5-381-407.8c-78.5-5.8-118.7,3.8-202.9,47.9c-331.2,168.5-285.2,639.4,72.7,754.3C5768.7-891.2,5927.6-906.6,5992.7-941z M4662.2-2796.1c-51.7-51.7-65.1-80.4-65.1-139.8c0-164.6,97.6-216.3,402-216.3c304.4,0,402,51.7,402,216.3c0,59.4-13.4,88.1-65.1,139.8L5271-2731h187.6h187.6l118.7-128.3c176.1-191.4,342.7-421.2,405.8-555.2l57.4-120.6l-61.3-76.6c-84.2-105.3-281.4-271.8-488.2-407.8c-204.8-135.9-612.6-338.9-679.6-338.9c-26.8,0-151.2,49.8-277.6,113c-367.6,179.9-723.6,430.7-880.6,622.2l-70.8,88.1l55.5,118.7c67,139.7,235.5,371.4,405.8,557.1l120.6,128.3h187.6h187.6L4662.2-2796.1z"/><path d="M4788.5,3165.4c-476.7-90-857.7-444.1-976.3-911.3c-97.6-381,7.7-809.8,268-1104.6l95.7-105.3V783.9V523.5h813.6h813.6v254.6v254.6l59.4,57.4c105.3,101.5,243.1,329.3,296.7,492c44,132.1,51.7,191.4,51.7,377.1c1.9,191.4-5.7,241.2-51.7,373.3c-172.3,501.6-595.4,821.3-1112.3,842.3C4953.2,3178.8,4836.4,3175,4788.5,3165.4z M5158,2753.8c250.8-53.6,461.4-216.3,574.3-448c57.4-120.6,61.3-137.8,61.3-346.5c0-212.5-1.9-225.9-65.1-352.2c-44-90-105.3-170.4-195.3-258.4l-132.1-128.3v-112.9c-1.9-93.8-5.7-107.2-23-76.6c-36.4,68.9-99.5,105.3-179.9,105.3s-139.7-38.3-193.4-126.3c-19.1-30.6-23-30.6-23-3.8c-1.9,17.2-28.7,53.6-61.3,80.4c-84.2,70.8-193.4,68.9-268-5.7l-55.5-55.5v91.9c0,90-3.8,97.6-139.7,233.6c-158.9,158.9-227.8,283.3-264.2,480.5c-78.5,425,245,869.2,677.7,932.3C5016.3,2784.4,5016.3,2784.4,5158,2753.8z"/><path d="M4602.8,2141.2c-63.2-26.8-120.6-112.9-120.6-181.9c0-72.7,57.4-155.1,128.3-185.7c84.2-34.5,151.2-19.2,222.1,47.9c40.2,38.3,51.7,67,51.7,132.1C4884.3,2102.9,4738.8,2202.4,4602.8,2141.2z"/><path d="M5215.4,2141.2c-63.2-26.8-120.6-112.9-120.6-181.9c0-72.7,57.4-155.1,128.3-183.8c88-38.3,164.6-19.2,225.9,53.6C5584.9,1991.9,5410.7,2227.3,5215.4,2141.2z"/><path d="M3427.4-757.2c-42.1-44-55.5-74.7-55.5-132.1c0-107.2,59.3-170.4,247-262.3c155.1-74.7,155.1-74.7,155.1-149.3c0-59.3,13.4-88.1,65.1-139.8c80.4-80.4,185.7-90,269.9-23l51.7,40.2l84.2-40.2c158.9-78.5,287.2-38.3,333.1,101.5c19.1,57.4,17.2,78.5-13.4,139.7c-32.5,65.1-70.8,90-474.8,294.8C3588.2-673,3528.9-657.7,3427.4-757.2z"/></g></g>
</svg>