<?xml version="1.0" encoding="UTF-8"?>
<svg width="834px" height="247px" viewBox="0 0 834 247" version="1.1" xmlns="http://www.w3.org/2000/svg" xmlns:xlink="http://www.w3.org/1999/xlink">
    <!-- Generator: Sketch 51.3 (57544) - http://www.bohemiancoding.com/sketch -->
    <title>RYAN BREUAX</title>
    <desc>Created with Sketch.</desc>
    <defs></defs>
    <g id="Page-1" stroke="none" stroke-width="1" fill="none" fill-rule="evenodd">
        <g id="Desktop" transform="translate(-8.000000, -351.000000)" stroke="#FF0000">
            <path d="M111.9,456.6 L91.65,427.35 L69.3,427.35 L69.3,456.6 L45,456.6 L45,351.6 L90.45,351.6 C99.7500465,351.6 107.824966,353.149984 114.675,356.25 C121.525034,359.350015 126.799982,363.749971 130.5,369.45 C134.200018,375.150028 136.05,381.899961 136.05,389.7 C136.05,397.500039 134.175019,404.224972 130.425,409.875 C126.674981,415.525028 121.350034,419.849985 114.45,422.85 L138,456.6 L111.9,456.6 Z M111.15,389.9 C111.15,383.99997 109.250019,379.475016 105.45,376.325 C101.649981,373.174984 96.1000365,371.6 88.8,371.6 L69,371.6 L69,408.2 L88.8,408.2 C96.1000365,408.2 101.649981,406.600016 105.45,403.4 C109.250019,400.199984 111.15,395.700029 111.15,389.9 Z M240.95,419.4 L240.95,456.6 L216.65,456.6 L216.65,419.1 L176,351.6 L201.8,351.6 L229.85,398.25 L257.9,351.6 L281.75,351.6 L240.95,419.4 Z M391.95,434.1 L343.2,434.1 L333.9,456.6 L309,456.6 L355.8,351.6 L379.8,351.6 L426.75,456.6 L401.25,456.6 L391.95,434.1 Z M384.3,415.8 L367.65,375.6 L351,415.8 L384.3,415.8 Z M572.3,351.6 L572.3,456.6 L552.35,456.6 L500,392.85 L500,456.6 L476,456.6 L476,351.6 L496.1,351.6 L548.3,415.35 L548.3,351.6 L572.3,351.6 Z M86.1,540.4 C92.10003,542.300009 96.799983,545.474978 100.2,549.925 C103.600017,554.375022 105.3,559.849968 105.3,566.35 C105.3,575.550046 101.725036,582.624975 94.575,587.575 C87.4249643,592.525025 77.0000685,595 63.3,595 L9,595 L9,490 L60.3,490 C73.100064,490 82.9249657,492.449975 89.775,497.35 C96.6250342,502.250024 100.05,508.899958 100.05,517.3 C100.05,522.400025 98.8250123,526.94998 96.375,530.95 C93.9249877,534.95002 90.500022,538.099988 86.1,540.4 Z M33,509 L33,533.75 L57.15,533.75 C63.15003,533.75 67.6999845,532.70001 70.8,530.6 C73.9000155,528.49999 75.45,525.40002 75.45,521.3 C75.45,517.199979 73.9000155,514.12501 70.8,512.075 C67.6999845,510.02499 63.15003,509 57.15,509 L33,509 Z M61.35,576.95 C67.750032,576.95 72.5749837,575.900011 75.825,573.8 C79.0750162,571.69999 80.7,568.450022 80.7,564.05 C80.7,555.349956 74.2500645,551 61.35,551 L33,551 L33,576.95 L61.35,576.95 Z M227.9,595 L207.65,565.75 L185.3,565.75 L185.3,595 L161,595 L161,490 L206.45,490 C215.750046,490 223.824966,491.549984 230.675,494.65 C237.525034,497.750016 242.799982,502.149971 246.5,507.85 C250.200018,513.550029 252.05,520.299961 252.05,528.1 C252.05,535.900039 250.175019,542.624972 246.425,548.275 C242.674981,553.925028 237.350034,558.249985 230.45,561.25 L254,595 L227.9,595 Z M227.15,528.3 C227.15,522.399971 225.250019,517.875016 221.45,514.725 C217.649981,511.574984 212.100036,510 204.8,510 L185,510 L185,546.6 L204.8,546.6 C212.100036,546.6 217.649981,545.000016 221.45,541.8 C225.250019,538.599984 227.15,534.100029 227.15,528.3 Z M390.3,575.5 L390.3,595 L309,595 L309,490 L388.35,490 L388.35,509.5 L333.15,509.5 L333.15,532.3 L381.9,532.3 L381.9,551.2 L333.15,551.2 L333.15,575.5 L390.3,575.5 Z M493.55,596.8 C478.549925,596.8 466.875042,592.650042 458.525,584.35 C450.174958,576.049959 446,564.200077 446,548.8 L446,490 L470.3,490 L470.3,547.9 C470.3,566.700094 478.099922,576.1 493.7,576.1 C501.300038,576.1 507.09998,573.825023 511.1,569.275 C515.10002,564.724977 517.1,557.600048 517.1,547.9 L517.1,490 L541.1,490 L541.1,548.8 C541.1,564.200077 536.925042,576.049959 528.575,584.35 C520.224958,592.650042 508.550075,596.8 493.55,596.8 Z M669.95,572.5 L621.2,572.5 L611.9,595 L587,595 L633.8,490 L657.8,490 L704.75,595 L679.25,595 L669.95,572.5 Z M662.3,554.2 L645.65,514 L629,554.2 L662.3,554.2 Z M813.15,595 L787.8,558.55 L762.9,595 L735,595 L773.85,541.6 L736.95,490 L764.55,490 L788.7,524.05 L812.4,490 L838.65,490 L802.05,540.7 L841.2,595 L813.15,595 Z" id="RYAN-BREUAX"></path>
        </g>
    </g>
</svg>